# 3ds Max Wavefront OBJ Exporter v0.99 - (c)2007 guruware
# File Created: 17.05.2021 10:39:42

mtllib pilone.mtl

#
# object Box001
#

v  -10.0000 0.0000 10.0000
v  10.0000 0.0000 10.0000
v  -10.0000 0.0000 -10.0000
v  10.0000 0.0000 -10.0000
v  -10.0000 120.0000 10.0000
v  10.0000 120.0000 10.0000
v  -10.0000 120.0000 -10.0000
v  10.0000 120.0000 -10.0000
# 8 vertices

vn -0.5774 -0.5774 0.5774
vn -0.5774 -0.5774 -0.5774
vn 0.5774 -0.5774 -0.5774
vn 0.5774 -0.5774 0.5774
vn -0.5774 0.5774 0.5774
vn 0.5774 0.5774 0.5774
vn 0.5774 0.5774 -0.5774
vn -0.5774 0.5774 -0.5774
vn -0.5774 -0.5774 0.5774
vn 0.5774 -0.5774 0.5774
vn 0.5774 0.5774 0.5774
vn -0.5774 0.5774 0.5774
vn 0.5774 -0.5774 0.5774
vn 0.5774 -0.5774 -0.5774
vn 0.5774 0.5774 -0.5774
vn 0.5774 0.5774 0.5774
vn 0.5774 -0.5774 -0.5774
vn -0.5774 -0.5774 -0.5774
vn -0.5774 0.5774 -0.5774
vn 0.5774 0.5774 -0.5774
vn -0.5774 -0.5774 -0.5774
vn -0.5774 -0.5774 0.5774
vn -0.5774 0.5774 0.5774
vn -0.5774 0.5774 -0.5774
# 24 vertex normals

vt 0.0012 0.4134 0.0000
vt 0.4400 0.4134 0.0000
vt 0.0012 0.8522 0.0000
vt 0.4400 0.8522 0.0000
vt 0.0012 0.4134 0.0000
vt 0.4400 0.4134 0.0000
vt 0.0012 0.8522 0.0000
vt 0.4400 0.8522 0.0000
vt 0.0012 0.4134 0.0000
vt 0.4400 0.4134 0.0000
vt 0.0012 0.8522 0.0000
vt 0.4400 0.8522 0.0000
vt 0.0012 0.4134 0.0000
vt 0.4400 0.4134 0.0000
vt 0.0012 0.8522 0.0000
vt 0.4400 0.8522 0.0000
vt 0.0005 0.8850 0.0000
vt 0.1150 0.8850 0.0000
vt 0.0005 0.9995 0.0000
vt 0.1150 0.9995 0.0000
vt 0.0005 0.8850 0.0000
vt 0.1150 0.8850 0.0000
vt 0.0005 0.9995 0.0000
vt 0.1150 0.9995 0.0000
# 24 texture coords

o Box001
g Box001
usemtl wire_166229229
s 2
f 1/22/1 3/24/2 4/23/3 2/21/4 
s 4
f 5/17/5 6/18/6 8/20/7 7/19/8 
s 8
f 1/13/9 2/14/10 6/16/11 5/15/12 
s 16
f 2/1/13 4/2/14 8/4/15 6/3/16 
s 32
f 4/9/17 3/10/18 7/12/19 8/11/20 
s 64
f 3/5/21 1/6/22 5/8/23 7/7/24 
# 6 polygons

