# 3ds Max Wavefront OBJ Exporter v0.99 - (c)2007 guruware
# File Created: 17.05.2021 12:24:28

mtllib wall.mtl

#
# object Box002
#

v  -20.0000 0.0000 -0.0000
v  60.0000 0.0000 -0.0000
v  -20.0000 0.0000 -10.0000
v  60.0000 0.0000 -10.0000
v  -20.0000 60.0000 -0.0000
v  60.0000 60.0000 -0.0000
v  -20.0000 60.0000 -10.0000
v  60.0000 60.0000 -10.0000
# 8 vertices

vn -0.5774 0.5774 0.5774
vn 0.5774 0.5774 0.5774
vn 0.5774 0.5774 -0.5774
vn -0.5774 0.5774 -0.5774
vn -0.7071 0.0000 0.7071
vn 0.7071 0.0000 0.7071
vn 0.5774 0.5774 0.5774
vn -0.5774 0.5774 0.5774
vn 0.7071 0.0000 0.7071
vn 0.7071 0.0000 -0.7071
vn 0.5774 0.5774 -0.5774
vn 0.5774 0.5774 0.5774
vn 0.7071 0.0000 -0.7071
vn -0.7071 0.0000 -0.7071
vn -0.5774 0.5774 -0.5774
vn 0.5774 0.5774 -0.5774
vn -0.7071 0.0000 -0.7071
vn -0.7071 0.0000 0.7071
vn -0.5774 0.5774 0.5774
vn -0.5774 0.5774 -0.5774
# 20 vertex normals

vt 0.0500 0.6775 0.0000
vt 0.3698 0.6775 0.0000
vt 0.0500 0.9973 0.0000
vt 0.3698 0.9973 0.0000
vt 0.0502 0.1508 0.0000
vt 0.5476 0.1508 0.0000
vt 0.0502 0.6483 0.0000
vt 0.5476 0.6483 0.0000
vt 0.4008 0.7000 0.0000
vt 0.6495 0.7000 0.0000
vt 0.4008 0.9487 0.0000
vt 0.6495 0.9487 0.0000
vt 0.0502 0.1508 0.0000
vt 0.5476 0.1508 0.0000
vt 0.0502 0.6483 0.0000
vt 0.5476 0.6483 0.0000
vt 0.4008 0.7000 0.0000
vt 0.6495 0.7000 0.0000
vt 0.4008 0.9487 0.0000
vt 0.6495 0.9487 0.0000
# 20 texture coords

o Box002
g Box002
usemtl wire_027177088
s 4
f 5/1/1 6/2/2 8/4/3 7/3/4 
s 8
f 1/5/5 2/6/6 6/8/7 5/7/8 
s 16
f 2/9/9 4/10/10 8/12/11 6/11/12 
s 32
f 4/13/13 3/14/14 7/16/15 8/15/16 
s 64
f 3/17/17 1/18/18 5/20/19 7/19/20 
# 5 polygons

